<?xml version="1.0" encoding="utf-8"?>
<!-- Generator: Adobe Illustrator 25.0.0, SVG Export Plug-In . SVG Version: 6.00 Build 0)  -->
<svg version="1.1" id="Layer_1" xmlns="http://www.w3.org/2000/svg" xmlns:xlink="http://www.w3.org/1999/xlink" x="0px" y="0px"
	 viewBox="0 0 437.5 437.5" style="enable-background:new 0 0 437.5 437.5;" xml:space="preserve">
<style type="text/css">
	.st0{fill:none;stroke:#FFFFFF;stroke-width:10;}
	.st1{fill:none;stroke:#FF0000;stroke-width:10;}
	.st2{fill-rule:evenodd;clip-rule:evenodd;fill:none;stroke:#FFFFFF;stroke-width:10;}
</style>
<g>
	<g>
		<polygon class="st0" points="298.8,171 288.8,171 288.8,148.8 266.5,148.8 266.5,138.8 298.8,138.8 		"/>
		<polyline class="st1" points="293.8,171 293.8,143.8 266.5,143.8 		"/>
	</g>
	<g>
		<polygon class="st0" points="148.8,171 138.8,171 138.8,138.8 171,138.8 171,148.8 148.8,148.8 		"/>
		<polyline class="st1" points="143.8,171 143.8,143.8 171,143.8 		"/>
	</g>
	<g>
		<polygon class="st0" points="298.8,298.8 266.5,298.8 266.5,288.8 288.8,288.8 288.8,266.5 298.8,266.5 		"/>
		<polyline class="st1" points="293.8,266.5 293.8,293.8 266.5,293.8 		"/>
	</g>
	<g>
		<polygon class="st0" points="171,298.8 138.8,298.8 138.8,266.5 148.8,266.5 148.8,288.8 171,288.8 		"/>
		<polyline class="st1" points="143.8,266.5 143.8,293.8 171,293.8 		"/>
	</g>
</g>
<line class="st2" x1="150" y1="218.8" x2="0" y2="218.8"/>
<line class="st2" x1="437.5" y1="218.8" x2="287.5" y2="218.8"/>
<line class="st2" x1="218.8" y1="150" x2="218.8" y2="0"/>
<line class="st2" x1="218.8" y1="437.5" x2="218.8" y2="287.5"/>
</svg>
